<svg xmlns="http://www.w3.org/2000/svg" version="1.1" xmlns:xlink="http://www.w3.org/1999/xlink" xmlns:svgjs="http://svgjs.dev/svgjs" viewBox="0 0 1422 800"><defs><linearGradient x1="50%" y1="0%" x2="50%" y2="100%" id="oooscillate-grad"><stop stop-color="hsl(236, 74%, 42%)" stop-opacity="1" offset="0%"></stop><stop stop-color="hsl(0, 96%, 48%)" stop-opacity="1" offset="100%"></stop></linearGradient></defs><g stroke-width="2" stroke="url(#oooscillate-grad)" fill="none" stroke-linecap="round"><path d="M 0 891 Q 355.5 215 711 400 Q 1066.5 585 1422 891" opacity="0.05"></path><path d="M 0 864 Q 355.5 215 711 400 Q 1066.5 585 1422 864" opacity="0.08"></path><path d="M 0 837 Q 355.5 215 711 400 Q 1066.5 585 1422 837" opacity="0.11"></path><path d="M 0 810 Q 355.5 215 711 400 Q 1066.5 585 1422 810" opacity="0.14"></path><path d="M 0 783 Q 355.5 215 711 400 Q 1066.5 585 1422 783" opacity="0.17"></path><path d="M 0 756 Q 355.5 215 711 400 Q 1066.5 585 1422 756" opacity="0.20"></path><path d="M 0 729 Q 355.5 215 711 400 Q 1066.5 585 1422 729" opacity="0.23"></path><path d="M 0 702 Q 355.5 215 711 400 Q 1066.5 585 1422 702" opacity="0.26"></path><path d="M 0 675 Q 355.5 215 711 400 Q 1066.5 585 1422 675" opacity="0.29"></path><path d="M 0 648 Q 355.5 215 711 400 Q 1066.5 585 1422 648" opacity="0.32"></path><path d="M 0 621 Q 355.5 215 711 400 Q 1066.5 585 1422 621" opacity="0.35"></path><path d="M 0 594 Q 355.5 215 711 400 Q 1066.5 585 1422 594" opacity="0.38"></path><path d="M 0 567 Q 355.5 215 711 400 Q 1066.5 585 1422 567" opacity="0.41"></path><path d="M 0 540 Q 355.5 215 711 400 Q 1066.5 585 1422 540" opacity="0.44"></path><path d="M 0 513 Q 355.5 215 711 400 Q 1066.5 585 1422 513" opacity="0.47"></path><path d="M 0 486 Q 355.5 215 711 400 Q 1066.5 585 1422 486" opacity="0.50"></path><path d="M 0 459 Q 355.5 215 711 400 Q 1066.5 585 1422 459" opacity="0.53"></path><path d="M 0 432 Q 355.5 215 711 400 Q 1066.5 585 1422 432" opacity="0.55"></path><path d="M 0 405 Q 355.5 215 711 400 Q 1066.5 585 1422 405" opacity="0.58"></path><path d="M 0 378 Q 355.5 215 711 400 Q 1066.5 585 1422 378" opacity="0.61"></path><path d="M 0 351 Q 355.5 215 711 400 Q 1066.5 585 1422 351" opacity="0.64"></path><path d="M 0 324 Q 355.5 215 711 400 Q 1066.5 585 1422 324" opacity="0.67"></path><path d="M 0 297 Q 355.5 215 711 400 Q 1066.5 585 1422 297" opacity="0.70"></path><path d="M 0 270 Q 355.5 215 711 400 Q 1066.5 585 1422 270" opacity="0.73"></path><path d="M 0 243 Q 355.5 215 711 400 Q 1066.5 585 1422 243" opacity="0.76"></path><path d="M 0 216 Q 355.5 215 711 400 Q 1066.5 585 1422 216" opacity="0.79"></path><path d="M 0 189 Q 355.5 215 711 400 Q 1066.5 585 1422 189" opacity="0.82"></path><path d="M 0 162 Q 355.5 215 711 400 Q 1066.5 585 1422 162" opacity="0.85"></path><path d="M 0 135 Q 355.5 215 711 400 Q 1066.5 585 1422 135" opacity="0.88"></path><path d="M 0 108 Q 355.5 215 711 400 Q 1066.5 585 1422 108" opacity="0.91"></path><path d="M 0 81 Q 355.5 215 711 400 Q 1066.5 585 1422 81" opacity="0.94"></path><path d="M 0 54 Q 355.5 215 711 400 Q 1066.5 585 1422 54" opacity="0.97"></path></g></svg>